<svg width="80" height="79" viewBox="0 0 80 79" fill="none" xmlns="http://www.w3.org/2000/svg">
<path opacity="0.5" fill-rule="evenodd" clip-rule="evenodd" d="M40 53C47.1797 53 53 47.1797 53 40C53 32.8203 47.1797 27 40 27C32.8203 27 27 32.8203 27 40C27 47.1797 32.8203 53 40 53ZM40 48.125C40.8975 48.125 41.625 47.3975 41.625 46.5C41.625 45.6025 40.8975 44.875 40 44.875C39.1025 44.875 38.375 45.6025 38.375 46.5C38.375 47.3975 39.1025 48.125 40 48.125ZM40 35.125C39.35 35.125 38.8625 35.45 38.5375 35.9375L37.725 37.4L34.9625 35.775L35.775 34.3125C36.5875 32.85 38.2125 31.875 40 31.875C42.7625 31.875 44.875 33.9875 44.875 36.75C44.875 39.025 43.4125 40 42.4375 40.65C41.625 41.1375 41.625 41.3 41.625 41.625V43.25H38.375V41.625C38.375 39.5125 39.675 38.5375 40.65 37.8875C41.4625 37.4 41.625 37.2375 41.625 36.75C41.625 35.775 40.975 35.125 40 35.125Z" fill="white"/>
</svg>