<svg width="80" height="80" viewBox="0 0 80 80" fill="none" xmlns="http://www.w3.org/2000/svg">
<path opacity="0.3" fill-rule="evenodd" clip-rule="evenodd" d="M26.8667 27H47.6667C48.1459 27 48.5333 27.3874 48.5333 27.8667V42.6C48.5333 43.0793 48.1459 43.4667 47.6667 43.4667H38.4592L31.7703 49.3193C31.512 49.5446 31.1463 49.5949 30.8421 49.4553C30.5318 49.3149 30.3333 49.0073 30.3333 48.6667V43.4667H26.8667C26.3874 43.4667 26 43.0793 26 42.6V27.8667C26 27.3874 26.3874 27 26.8667 27ZM50.2667 33.9333H52.8667C53.3451 33.9333 53.7333 34.3216 53.7333 34.8V47.8C53.7333 48.2784 53.3451 48.6667 52.8667 48.6667H50.2667V52.1333C50.2667 52.4583 50.0855 52.7556 49.7969 52.9038C49.5023 53.0537 49.1573 53.0251 48.8965 52.8379L43.056 48.6667H35.1485L39.1109 45.2H48.5333C49.491 45.2 50.2667 44.4243 50.2667 43.4667V33.9333Z" fill="white"/>
</svg>