<svg width="80" height="80" viewBox="0 0 80 80" fill="none" xmlns="http://www.w3.org/2000/svg">
<path opacity="0.3" fill-rule="evenodd" clip-rule="evenodd" d="M35.2188 31.9375L31.6562 39.0625H25C25.4688 31.1875 31.9375 25 39.9062 25C47.875 25 54.3438 31.1875 54.9062 39.0625H47.5938C47.2188 39.0625 46.9375 39.3438 46.75 39.625L43.75 45.625L36.9062 31.9375C36.625 31.2812 35.5 31.2812 35.2188 31.9375ZM44.5938 48.0625L48.1562 40.9375H54.8125C54.3438 48.8125 47.875 55 39.9062 55C31.9375 55 25.4688 48.8125 25 40.9375H32.2188C32.5938 40.9375 32.875 40.75 33.0625 40.375L36.0625 34.375L42.9062 48.0625C43.0938 48.4375 43.375 48.625 43.75 48.625C44.125 48.625 44.4062 48.3438 44.5938 48.0625Z" fill="white"/>
</svg>